# xmcd
#
# Track frame offsets:
#	150
#	18321
#	35022
#	50429
#	69383
#	86021
#	101428
#	118287
#	130958
#	146192
#	163228
#	179868
#	192788
#	210488
#	225474
#	239390
#	253876
#	271696
#	289548
#
# Disc length: 4062 seconds
#
# Revision: 1
# Processed by: cddbd v1.5.2PL0 Copyright (c) Steve Scherf et al.
# Submitted via: audiograbber 1.83.01
#
DISCID=1c0fdc13
DTITLE=Various Artist - Hott Country 147
DYEAR=2008
DGENRE=Country
TTITLE0=Martina McBride - Hit Me With Your Best Shot
TTITLE1=Aaron Lines - Moments That Matter
TTITLE2=Chuck Wicks - All I Ever Wanted
TTITLE3=Sugarland feat Little Big Town and Jake Owen - Life In A Northern Town
TTITLE4=Blue Rodeo - Where I Was Before
TTITLE5=Brooks and Dunn - Put A Girl In IT
TTITLE6=Lonestar - Let Me Love You
TTITLE7=Charlie Major - Make It Right
TTITLE8=Gary Allan - Learning How To Bend
TTITLE9=Blake Shelton - Home
TTITLE10=Hey Romeo - Weathered Names
TTITLE11=Shooter Jennings - This Ol Wheel
TTITLE12=Chris Cagle - No Love Songs
TTITLE13=Tracy Millar - I Can't Be Bothered
TTITLE14=Amber Nicholson - Hold Me Back
TTITLE15=Adam Gregory - Crazy Days
TTITLE16=Tracy Bone - Standards
TTITLE17=Gil Grand - Good Days Bad Days
TTITLE18=Reba McEntire - Whoever's In New England ( 1989 )
EXTD=May 2008
EXTT0=
EXTT1=
EXTT2=
EXTT3=
EXTT4=
EXTT5=
EXTT6=
EXTT7=
EXTT8=
EXTT9=
EXTT10=
EXTT11=
EXTT12=
EXTT13=
EXTT14=
EXTT15=
EXTT16=
EXTT17=
EXTT18=
PLAYORDER=
